<svg width="149" height="154" viewBox="0 0 149 154" fill="none" xmlns="http://www.w3.org/2000/svg">
    <path fill-rule="evenodd" clip-rule="evenodd" d="M59.3733 80.4587C59.3733 83.4376 56.5604 85.8513 53.079 85.8513C49.5975 85.8513 46.7891 83.4376 46.7891 80.4587C46.7891 77.4797 49.6065 75.066 53.079 75.066C56.5514 75.066 59.3733 77.4797 59.3733 80.4587Z" fill="#EEF6EC"/>
    <path fill-rule="evenodd" clip-rule="evenodd" d="M76.92 8.8292C76.92 10.9423 75.0761 12.6516 72.8015 12.6516C70.5269 12.6516 68.6875 10.9423 68.6875 8.8292C68.6875 6.71611 70.5314 5.00232 72.8015 5.00232C75.0716 5.00232 76.92 6.71611 76.92 8.8292Z" fill="#EEF6EC"/>
    <path fill-rule="evenodd" clip-rule="evenodd" d="M27.2061 58.0985C27.2061 60.2116 25.3622 61.9254 23.0921 61.9254C20.822 61.9254 18.9736 60.2116 18.9736 58.0985C18.9736 55.9854 20.8175 54.2761 23.0921 54.2761C25.3667 54.2761 27.2061 55.9854 27.2061 58.0985Z" fill="#EEF6EC"/>
    <path fill-rule="evenodd" clip-rule="evenodd" d="M98.3823 75.3622C98.3823 76.4704 97.4177 77.3676 96.2244 77.3676C95.031 77.3676 94.0664 76.4704 94.0664 75.3622C94.0664 74.2541 95.031 73.3568 96.2244 73.3568C97.4177 73.3568 98.3823 74.2541 98.3823 75.3622Z" fill="#EEF6EC"/>
    <path fill-rule="evenodd" clip-rule="evenodd" d="M83.6895 104.129C83.6895 105.237 82.7205 106.134 81.5316 106.134C80.3427 106.134 79.3691 105.237 79.3691 104.129C79.3691 103.021 80.3382 102.123 81.5316 102.123C82.725 102.123 83.6895 103.021 83.6895 104.129Z" fill="#EEF6EC"/>
    <path fill-rule="evenodd" clip-rule="evenodd" d="M121.438 100.535C121.438 101.643 120.469 102.541 119.28 102.541C118.091 102.541 117.117 101.643 117.117 100.535C117.117 99.427 118.086 98.5298 119.28 98.5298C120.473 98.5298 121.438 99.427 121.438 100.535Z" fill="#EEF6EC"/>
    <path fill-rule="evenodd" clip-rule="evenodd" d="M9.978 96.9372C9.978 98.0453 9.01343 98.9426 7.82006 98.9426C6.62668 98.9426 5.66211 98.0453 5.66211 96.9372C5.66211 95.829 6.62668 94.9318 7.82006 94.9318C9.01343 94.9318 9.978 95.829 9.978 96.9372Z" fill="#EEF6EC"/>
    <path fill-rule="evenodd" clip-rule="evenodd" d="M119.024 76.8651C119.024 77.6367 118.346 78.2648 117.512 78.2648C116.677 78.2648 116 77.6367 116 76.8651C116 76.0934 116.677 75.4608 117.512 75.4608C118.346 75.4608 119.024 76.0889 119.024 76.8651Z" fill="#EEF6EC"/>
    <path fill-rule="evenodd" clip-rule="evenodd" d="M110.034 67.8788C110.034 68.6505 109.356 69.2831 108.522 69.2831C107.687 69.2831 107.01 68.655 107.01 67.8788C107.01 67.1027 107.687 66.4746 108.522 66.4746C109.356 66.4746 110.034 67.1027 110.034 67.8788Z" fill="#EEF6EC"/>
    <path fill-rule="evenodd" clip-rule="evenodd" d="M56.1029 39.1121C56.1029 39.8883 55.4255 40.5164 54.591 40.5164C53.7566 40.5164 53.0791 39.8883 53.0791 39.1121C53.0791 38.336 53.7566 37.7079 54.591 37.7079C55.4255 37.7079 56.1029 38.336 56.1029 39.1121Z" fill="#EEF6EC"/>
    <path fill-rule="evenodd" clip-rule="evenodd" d="M59.6961 33.7195C59.6961 34.4957 59.0231 35.1238 58.1842 35.1238C57.3452 35.1238 56.6768 34.4957 56.6768 33.7195C56.6768 32.9434 57.3542 32.3153 58.1842 32.3153C59.0142 32.3153 59.6961 32.9434 59.6961 33.7195Z" fill="#EEF6EC"/>
    <path d="M116.041 72.3921L112.959 71.5846C109.625 126.184 24.8955 139.567 11.064 74.245C-8.20944 78.5205 4.41074 102.222 4.74273 106.547C5.59963 117.696 -2.69568 116.565 5.79703 136.677C8.39464 142.851 22.8318 148.315 22.7196 147.844C23.2042 163.995 103.739 143.147 105.937 139.822C107.49 137.467 112.501 135.098 114.026 133.55C121.29 126.202 118.594 114.735 113.102 105.493C129.464 100.804 125.18 82.4057 116.041 72.3966V72.3921Z" fill="#F1F9FC"/>
    <path d="M112.555 76.6497C113.38 77.215 113.843 78.2962 114.049 79.6825C114.233 78.8659 114.462 78.1885 114.839 77.87C115.884 76.9907 110.002 74.9224 112.559 76.6497H112.555Z" fill="white"/>
    <path d="M108.881 92.0022C107.077 94.5549 103.779 94.2588 101.46 94.851C98.7727 95.5285 94.1428 93.8999 92.5725 95.9188C90.5536 98.5254 90.6479 98.642 87.6555 98.3235C84.2189 97.9466 81.6168 96.7487 78.5616 99.297C76.7715 100.791 76.0896 102.846 73.981 104.106C71.6795 102.581 69.4856 101.464 66.6771 100.97C62.442 100.235 60.0149 102.254 56.0983 103.218C53.6442 103.824 56.686 101.67 51.4549 102.823C47.951 103.599 45.3803 99.4495 41.6835 99.5482C40.2658 99.5841 37.3542 101.069 36.1115 100.517C34.9001 99.97 29.2563 100.701 28.6102 99.4316C25.8601 94.0928 9.09899 97.7088 13.7469 82.334C12.0779 79.3416 12.3965 73.2626 10.732 76.2505V76.919C7.65437 77.5291 7.65437 82.0289 8.12993 84.4965C8.82531 88.2112 11.6203 90.2974 14.2987 92.5854C8.0402 94.0524 8.71764 97.48 10.4763 103.42C11.6472 107.364 12.4458 111.993 15.9542 114.596C12.5355 121.76 12.2574 127.826 16.4611 134.87C20.0951 140.953 24.7071 142.321 30.4048 145.605C32.9351 147.068 32.5313 146.301 33.3703 149.387C34.3707 153.093 96.036 145.969 96.9737 142.178C97.8306 138.683 99.0419 139.293 102.07 137.27C108.975 132.68 109.082 120.894 107.566 113.532C107.23 111.886 104.569 108.458 104.659 107.193C104.735 106.206 106.274 105.394 106.884 104.654C108.818 102.285 110.056 99.8892 111.034 97.0135C111.963 94.2813 114.807 84.8598 114.044 79.6871C113.667 81.3739 113.484 83.653 112.595 84.5682C109.953 87.3184 111.9 87.7266 108.876 92.0066L108.881 92.0022Z" fill="white"/>
    <path d="M69.418 0.00449076C68.7092 0.00449076 67.9913 0.0224297 67.2601 0.0538343C32.715 1.66444 12.7865 35.4155 13.6927 55.7298C26.3308 42.329 44.9134 35.2226 62.8186 35.2226C65.0617 35.2226 67.3004 35.3347 69.5077 35.559C66.5512 34.572 64.5503 33.908 64.5503 33.908C68.5207 34.5002 72.0829 35.3661 75.2817 36.4204C81.6389 37.6721 87.6821 39.9198 93.0971 43.2038C93.8374 41.7502 98.1757 31.9161 90.2842 14.0468C90.2842 14.0468 94.3443 20.3726 96.1568 26.6895C96.1568 26.6895 97.3098 25.5365 98.1308 25.5365C98.4583 25.5365 98.7365 25.7204 98.8621 26.2363C99.3152 28.0443 96.6055 26.2363 97.9648 29.8479C97.9648 29.8479 100.361 39.1795 101.267 49.4399C109.486 57.2148 112.671 64.4962 123.564 66.9457C126.7 67.6546 132.209 68.6461 137.346 68.6461C142.483 68.6461 147.207 67.6635 148.876 64.4378C111.168 58.2646 110.953 0 69.4135 0" fill="url(#paint0_linear_1485_41987)"/>
    <path d="M84.9587 40.7138C98.0948 48.2913 101.576 58.7446 101.576 58.7446C101.679 55.7118 101.54 52.5354 101.271 49.4443C101.056 49.2424 100.84 49.0406 100.621 48.8387C98.2967 46.7076 95.7798 44.8323 93.106 43.2083C93.0432 43.3339 93.0028 43.3967 93.0028 43.3967C91.4505 42.8763 88.4536 41.8803 84.9632 40.7138M69.5166 35.5635C73.7203 36.9632 79.8667 39.0135 84.9632 40.7138C82.1906 39.1122 78.9829 37.6407 75.2906 36.4249C73.3883 36.048 71.4637 35.7654 69.5166 35.568" fill="url(#paint1_radial_1485_41987)"/>
    <path d="M64.5547 33.9125C64.5547 33.9125 66.5511 34.5765 69.5121 35.5635C71.4592 35.7609 73.3839 36.048 75.2861 36.4204C72.0873 35.3661 68.5251 34.5002 64.5547 33.908M90.2885 14.0424C98.1801 31.9161 93.8418 41.7457 93.1015 43.1993C95.7754 44.8234 98.2922 46.6987 100.616 48.8297C100.836 49.0316 101.056 49.2335 101.267 49.4354C100.36 39.1706 97.9647 29.8434 97.9647 29.8434C96.6054 26.2318 99.3196 28.0399 98.862 26.2319C98.7319 25.7159 98.4582 25.532 98.1307 25.532C97.3097 25.532 96.1567 26.685 96.1567 26.685C94.3487 20.3682 90.2841 14.0424 90.2841 14.0424" fill="url(#paint2_linear_1485_41987)"/>
    <path d="M104.363 82.841C104.363 102.298 85.7131 118.077 62.7025 118.077C39.6919 118.077 21.042 102.298 21.042 82.841C21.042 63.3835 39.6964 47.6005 62.7025 47.6005C85.7086 47.6005 104.363 63.379 104.363 82.841Z" fill="#FBC6B1"/>
    <path d="M104.363 82.8409H104.304C104.304 92.5494 99.652 101.343 92.1239 107.709C84.5957 114.075 74.1963 118.019 62.7067 118.019C51.2171 118.019 40.8132 114.08 33.2895 107.709C25.7614 101.343 21.109 92.5494 21.109 82.8409C21.109 73.1324 25.7614 64.3391 33.2895 57.9685C40.8177 51.6023 51.2171 47.6588 62.7067 47.6588C74.1963 47.6588 84.5957 51.5978 92.1239 57.9685C99.652 64.3346 104.304 73.1279 104.304 82.8409H104.426C104.426 73.092 99.7552 64.2628 92.2046 57.8787C84.6541 51.4901 74.2277 47.5421 62.7067 47.5421C51.1857 47.5421 40.7593 51.4901 33.2088 57.8787C25.6582 64.2673 20.9834 73.092 20.9834 82.8409C20.9834 92.5898 25.6582 101.415 33.2088 107.803C40.7593 114.192 51.1902 118.14 62.7067 118.14C74.2232 118.14 84.6541 114.192 92.2046 107.803C99.7552 101.419 104.426 92.5898 104.426 82.8409H104.367H104.363Z" fill="#231F20"/>
    <path d="M43.0919 81.1496C42.7734 81.1227 42.4549 81.1093 42.1408 81.1093C36.6943 81.1093 32.0644 85.2816 31.5844 90.8133C31.0639 96.6635 35.3978 101.823 41.2435 102.334C41.5576 102.361 41.8716 102.375 42.1767 102.375C47.6321 102.375 52.2666 98.2068 52.7646 92.6617C53.2715 86.8114 48.9511 81.6611 43.0919 81.1541V81.1496Z" fill="url(#paint3_radial_1485_41987)"/>
    <path d="M83.1333 81.1541C82.7879 81.1227 82.4424 81.1093 82.106 81.1093C76.2153 81.1093 71.213 85.6226 70.6881 91.6029C70.1273 97.9332 74.8111 103.514 81.1369 104.062C81.4779 104.088 81.8188 104.106 82.1508 104.106C88.0504 104.106 93.0662 99.5976 93.6 93.5993C94.1519 87.2735 89.4771 81.7059 83.1378 81.1541H83.1333Z" fill="url(#paint4_radial_1485_41987)"/>
    <path fill-rule="evenodd" clip-rule="evenodd" d="M116.283 80.0145C116.548 79.8126 116.705 79.4672 116.853 79.2429L116.736 79.2294C116.907 78.7718 117.203 78.3276 117.36 77.9956C117.692 77.1926 117.894 76.5017 117.992 75.6762C118.634 70.2522 114.686 65.2454 109.262 64.5993C108.436 64.5006 107.481 64.5051 106.624 64.6487C107.907 62.8855 108.661 60.584 108.625 57.8339C108.656 51.4991 104.542 45.8732 99.2662 45.0073C99.2662 45.0073 94.708 39.2647 88.5751 38.538C80.208 37.5465 67.3187 32.1852 53.0789 34.3297C32.8543 37.5509 8.96884 53.4462 7.74855 58.6863C7.31786 60.3059 7.25505 61.8581 7.56012 63.3252C4.56771 65.362 2.51295 68.5877 2.06431 72.3608C1.63362 76.0127 2.77765 79.4986 4.98495 82.0244C3.57174 83.8907 2.71484 86.0621 2.42322 88.5386C1.66951 94.9093 5.6265 100.867 11.6158 102.778C11.4319 103.353 11.3601 103.945 11.2793 104.654C10.4135 111.958 15.6087 118.552 23.0381 119.432C24.8058 119.643 26.7349 119.517 28.35 118.983C29.9157 123.954 34.124 127.794 39.548 128.436C43.1999 128.871 46.6813 127.727 49.3238 125.645C49.7321 125.215 50.1403 124.784 50.4499 124.223C50.5531 124.353 50.5396 124.479 50.6383 124.605C51.3292 123.851 52.0156 123.097 52.4822 122.195C55.201 128.494 61.9216 133.353 70.172 134.331C79.2479 135.403 87.4715 131.594 91.2131 125.224C91.5227 124.658 91.6932 124.205 91.8816 123.622C91.8816 123.622 91.9848 123.761 92.1014 123.77C92.3033 123.075 92.6263 122.397 92.8237 121.702C94.1831 122.339 95.6726 122.877 97.3236 123.07C103.69 123.824 109.527 119.97 111.523 114.232C111.684 113.891 111.738 113.42 111.779 113.07C112.061 110.71 111.72 108.516 110.895 106.39C111.249 106.435 111.604 106.475 111.85 106.381C111.792 105.896 111.608 105.403 111.429 104.9C117.997 104.959 123.699 100.253 124.708 93.6755C125.175 87.7535 121.644 82.1949 116.287 80.01L116.283 80.0145ZM93.5371 92.4238C93.5371 92.4238 90.5267 95.654 88.7187 96.7487C82.9223 100.253 63.4021 93.4781 63.4021 93.4781C63.4021 93.4781 60.1629 91.5445 51.8048 96.5334C35.8602 106 19.781 85.3398 25.8511 75.407C40.8042 50.9473 91.1279 57.0891 99.9122 69.8304C104.161 75.9902 99.1091 86.7441 93.5371 92.4193V92.4238Z" fill="white"/>
    <path d="M76.7358 90.4588C76.7358 97.2916 70.6657 102.823 63.1779 102.823C55.6902 102.823 49.6201 97.2916 49.6201 90.4588C49.6201 83.626 55.6902 78.0944 63.1779 78.0944C70.6657 78.0944 76.7358 83.6305 76.7358 90.4588Z" fill="url(#paint5_radial_1485_41987)"/>
    <path d="M49.5481 76.6811C49.5481 78.5878 47.933 80.1357 45.941 80.1357C43.9491 80.1357 42.334 78.5878 42.334 76.6811C42.334 74.7744 43.9491 73.2177 45.941 73.2177C47.933 73.2177 49.5481 74.7655 49.5481 76.6811Z" fill="#231F20"/>
    <path d="M80.1049 76.6811C80.1049 78.5878 78.4853 80.1357 76.4934 80.1357C74.5014 80.1357 72.8818 78.5878 72.8818 76.6811C72.8818 74.7744 74.4969 73.2177 76.4934 73.2177C78.4898 73.2177 80.1049 74.7655 80.1049 76.6811Z" fill="#231F20"/>
    <path d="M48.7402 75.3936C48.7402 76.1159 48.1256 76.7036 47.3674 76.7036C46.6092 76.7036 45.999 76.1204 45.999 75.3936C45.999 74.6668 46.6092 74.0791 47.3674 74.0791C48.1256 74.0791 48.7402 74.6623 48.7402 75.3936Z" fill="white"/>
    <path d="M78.9701 75.3486C78.9701 76.0754 78.3599 76.6631 77.5973 76.6631C76.8346 76.6631 76.2334 76.0799 76.2334 75.3486C76.2334 74.6173 76.848 74.0386 77.5973 74.0386C78.3465 74.0386 78.9701 74.6218 78.9701 75.3486Z" fill="white"/>
    <path d="M41.6384 68.1121C42.1812 67.8205 42.742 67.4123 42.5132 66.9412C42.2126 66.3221 41.0192 66.4791 40.3867 66.7707C39.7003 67.0758 39.1709 67.5513 38.9331 68.0762C38.812 68.3544 38.6011 69.0318 39.274 69.0453C40.0457 69.0677 40.768 68.5653 41.3602 68.2602C41.4499 68.2153 41.5442 68.1615 41.6384 68.1121Z" fill="#231F20"/>
    <path d="M77.5787 67.1655C77.0359 66.8694 76.4751 66.4656 76.7039 65.999C77.0045 65.3754 78.1978 65.528 78.8304 65.8151C79.5168 66.1291 80.0417 66.6047 80.2795 67.1296C80.4051 67.4078 80.6115 68.0852 79.943 68.0987C79.1669 68.1211 78.4491 67.6186 77.8569 67.3135C77.7671 67.2732 77.6729 67.2193 77.5787 67.1655Z" fill="#231F20"/>
    <path d="M81.1102 103.308C81.1102 103.348 82.5279 116.448 63.3217 116.65L62.918 115.843C79.2574 115.668 78.4094 103.501 78.4094 103.465L81.1102 103.308Z" fill="url(#paint6_radial_1485_41987)"/>
    <defs>
        <linearGradient id="paint0_linear_1485_41987" x1="13.6793" y1="34.3657" x2="148.894" y2="34.3657" gradientUnits="userSpaceOnUse">
            <stop stop-color="#EE3236"/>
            <stop offset="0.68" stop-color="#CB2026"/>
            <stop offset="0.99" stop-color="#B92025"/>
            <stop offset="1" stop-color="#B92025"/>
        </linearGradient>
        <radialGradient id="paint1_radial_1485_41987" cx="0" cy="0" r="1" gradientUnits="userSpaceOnUse" gradientTransform="translate(60.0773 -6.95841) scale(132.752 132.752)">
            <stop stop-color="#C5AA95"/>
            <stop offset="0.51" stop-color="#C0A996"/>
            <stop offset="1" stop-color="#A89C8D"/>
        </radialGradient>
        <linearGradient id="paint2_linear_1485_41987" x1="13.6792" y1="31.6614" x2="148.894" y2="31.6614" gradientUnits="userSpaceOnUse">
            <stop stop-color="#DF2D30"/>
            <stop offset="0.68" stop-color="#C32127"/>
            <stop offset="0.99" stop-color="#B12125"/>
            <stop offset="1" stop-color="#B12125"/>
        </linearGradient>
        <radialGradient id="paint3_radial_1485_41987" cx="0" cy="0" r="1" gradientUnits="userSpaceOnUse" gradientTransform="translate(64.1241 97.2467) scale(46.0841 46.084)">
            <stop stop-color="#F9B4A3"/>
            <stop offset="0.41" stop-color="#F8B2A0"/>
            <stop offset="0.65" stop-color="#F5AB98"/>
            <stop offset="0.84" stop-color="#F0A08A"/>
            <stop offset="1" stop-color="#E99177"/>
        </radialGradient>
        <radialGradient id="paint4_radial_1485_41987" cx="0" cy="0" r="1" gradientUnits="userSpaceOnUse" gradientTransform="translate(130.514 73.9176) scale(24.9173 24.9173)">
            <stop stop-color="#F9B4A3"/>
            <stop offset="0.41" stop-color="#F8B2A0"/>
            <stop offset="0.65" stop-color="#F5AB98"/>
            <stop offset="0.84" stop-color="#F0A08A"/>
            <stop offset="1" stop-color="#E99177"/>
        </radialGradient>
        <radialGradient id="paint5_radial_1485_41987" cx="0" cy="0" r="1" gradientUnits="userSpaceOnUse" gradientTransform="translate(63.2677 90.2928) scale(11.5614 15.644)">
            <stop stop-color="#FDCFAE"/>
            <stop offset="0.23" stop-color="#FAC9AA"/>
            <stop offset="0.51" stop-color="#F5BAA1"/>
            <stop offset="0.83" stop-color="#EBA092"/>
            <stop offset="1" stop-color="#E59088"/>
        </radialGradient>
        <radialGradient id="paint6_radial_1485_41987" cx="0" cy="0" r="1" gradientUnits="userSpaceOnUse" gradientTransform="translate(75.8948 106.109) scale(7.98126)">
            <stop stop-color="#F9B4A3"/>
            <stop offset="0.41" stop-color="#F8B2A0"/>
            <stop offset="0.65" stop-color="#F5AB98"/>
            <stop offset="0.84" stop-color="#F0A08A"/>
            <stop offset="1" stop-color="#E99177"/>
        </radialGradient>
    </defs>
</svg>
