<svg width="201" height="28" viewBox="0 0 201 28" fill="none" xmlns="http://www.w3.org/2000/svg">
    <path d="M36.299 7.3474C37.6715 5.06547 40.0197 3.90112 41.8775 4.71201C43.9544 5.62166 44.6223 8.6677 43.3647 11.511C43.1716 11.9528 42.8168 12.5298 42.5506 12.9041C38.3238 13.2679 38.8091 13.0028 37.0609 13.0028C38.1933 30.8425 15.457 26.9491 15.457 26.9491C4.59756 25.3118 0.0784734 19.6355 0.000198157 9.91523C-0.0937321 -1.5724 33.2359 -3.16299 36.299 7.3474Z" fill="url(#paint0_linear_1709_37568)"/>
    <path d="M164.702 7.3474C163.324 5.06547 160.981 3.90112 159.124 4.71201C157.042 5.62686 156.379 8.6677 157.637 11.511C157.83 11.9528 158.184 12.5298 158.451 12.9041C162.677 13.2679 162.192 13.0028 163.94 13.0028C162.808 30.8425 185.543 26.9491 185.543 26.9491C196.403 25.3118 200.922 19.6355 201 9.91523C201.094 -1.5724 167.765 -3.16299 164.702 7.3474Z" fill="url(#paint1_linear_1709_37568)"/>
    <defs>
        <linearGradient id="paint0_linear_1709_37568" x1="44.2624" y1="15.171" x2="0.261323" y2="15.171" gradientUnits="userSpaceOnUse">
            <stop stop-color="#EE3236"/>
            <stop offset="0.68" stop-color="#CB2026"/>
            <stop offset="0.99" stop-color="#B92025"/>
            <stop offset="1" stop-color="#B92025"/>
        </linearGradient>
        <linearGradient id="paint1_linear_1709_37568" x1="155.88" y1="15.171" x2="199.88" y2="15.171" gradientUnits="userSpaceOnUse">
            <stop stop-color="#EE3236"/>
            <stop offset="0.68" stop-color="#CB2026"/>
            <stop offset="0.99" stop-color="#B92025"/>
            <stop offset="1" stop-color="#B92025"/>
        </linearGradient>
    </defs>
</svg>
